<?xml version="1.0" encoding="UTF-8"?>
<svg id="Layer_2" xmlns="http://www.w3.org/2000/svg" viewBox="0 0 1395 162.87">
  <defs>
    <style>
      .cls-1 {
        fill: #fffbf5;
      }

      .cls-2 {
        fill: #ff2a9f;
      }
    </style>
  </defs>
  <g id="Layer_1-2" data-name="Layer_1">
    <g id="LOGO">
      <g>
        <path class="cls-1" d="M295.33,51.95c0-29.41-17.31-49.22-54.23-49.22H5.21L0,36.51h95.52l-19.4,122.64h39.21l19.4-122.64h46.41l-19.3,122.64h39.21l8.13-51.52h16.89l24.4,51.52,31.84.21,2.78-15.86-21.48-45.47c21.48-8.55,31.7-26.07,31.7-46.09ZM231.3,76.14h-17.1l6.26-40.46h15.43c12.72,0,19.61,6.26,19.61,18.98,0,11.89-7.51,21.48-24.19,21.48Z"/>
        <polygon class="cls-1" points="524.97 2.72 510.37 94.29 464.27 2.72 426.94 2.72 407.48 125.36 334.54 125.36 339.55 94.29 393.98 94.29 398.78 63.42 344.55 63.42 348.72 36.51 410.88 36.51 416.09 2.72 314.73 2.72 290.12 159.15 439.24 159.15 453.84 67.17 500.15 159.15 537.48 159.15 562.09 2.72 524.97 2.72"/>
        <path class="cls-1" d="M577.94,2.72h50.89c50.89,0,72.17,31.08,72.17,72.37,0,45.05-26.91,84.05-85.93,84.05h-61.74L577.94,2.72ZM611.73,36.51l-13.97,88.85h19.19c30.66,0,43.17-24.19,43.17-50.27,0-23.15-10.01-38.59-34.83-38.59h-13.56Z"/>
      </g>
      <g>
        <path class="cls-1" d="M783.27,3.53h49.65c39.68,0,58.17,20.15,58.17,50.07,0,35.32-24.72,57.55-67.73,57.55h-18.07l-7.69,48.2h-39.06L783.27,3.53ZM817.13,36.36l-6.65,41.97h15.79c16,0,25.55-8.73,25.55-22.64,0-12.05-6.65-19.32-22.64-19.32h-12.05Z"/>
        <path class="cls-1" d="M910.7,3.53h54.43c36.77,0,54.01,19.74,54.01,49.03,0,19.94-10.18,37.39-31.58,45.91l21.4,45.29v15.58h-34.49l-24.31-51.31h-16.83l-8.1,51.31h-39.06L910.7,3.53ZM944.56,36.36l-6.23,40.3h17.04c16.62,0,24.1-9.56,24.1-21.4,0-12.67-6.86-18.91-19.53-18.91h-15.37Z"/>
        <path class="cls-1" d="M1182.41,75.83c0,46.74-27.42,87.05-82.27,87.05-49.24,0-72.5-33.24-72.5-75.83,0-47.37,27.63-87.05,82.27-87.05,49.24,0,72.5,32.82,72.5,75.83ZM1143.15,75.83c0-25.76-12.46-42.38-35.11-42.38-27.84,0-41.13,22.85-41.13,53.6,0,25.76,12.47,42.38,34.9,42.38,27.84,0,41.34-23.27,41.34-53.6Z"/>
      </g>
      <polygon class="cls-2" points="1242.05 2.6 1237.49 32.64 1325.21 32.54 1234.34 120.65 1234.34 133.55 1267.87 133.55 1354.35 48.9 1339.47 133.36 1372.94 133.36 1395 2.6 1242.05 2.6"/>
    </g>
  </g>
</svg>