<svg xmlns="http://www.w3.org/2000/svg" xmlns:xlink="http://www.w3.org/1999/xlink" width="175" zoomAndPan="magnify" viewBox="0 0 131.25 110.999996" height="148" preserveAspectRatio="xMidYMid meet" version="1.2"><defs><clipPath id="778524f05e"><path d="M 0 19 L 130.503906 19 L 130.503906 92 L 0 92 Z M 0 19 "/></clipPath><filter x="0%" y="0%" width="100%" filterUnits="objectBoundingBox" id="90d49e675e" height="100%"><feColorMatrix values="0 0 0 0 1 0 0 0 0 1 0 0 0 0 1 0 0 0 1 0" type="matrix" in="SourceGraphic"/></filter><clipPath id="03a2e45202"><path d="M 0 1.019531 L 130.503906 1.019531 L 130.503906 71.863281 L 0 71.863281 Z M 0 1.019531 "/></clipPath><clipPath id="f3823589b0"><rect x="0" width="131" y="0" height="73"/></clipPath></defs><g id="3382561979"><g clip-rule="nonzero" clip-path="url(#778524f05e)"><g mask="url(#2d57231d77)" transform="matrix(1,0,0,1,0,19)"><g clip-path="url(#f3823589b0)"><g clip-rule="nonzero" clip-path="url(#03a2e45202)"><path style=" stroke:none;fill-rule:nonzero;fill:#ff2a9f;fill-opacity:1;" d="M 0 1.074219 L 0 19.464844 L 21.925781 36.441406 L 0 53.417969 L 0 71.808594 L 45.695312 36.441406 Z M 0.917969 53.84375 L 23.414062 36.441406 L 0.917969 18.972656 L 0.917969 2.914062 L 44.207031 36.371094 L 0.917969 69.898438 Z M 42.296875 1.074219 L 42.296875 19.464844 L 64.226562 36.441406 L 42.296875 53.417969 L 42.296875 71.808594 L 87.992188 36.441406 Z M 43.21875 53.84375 L 65.710938 36.441406 L 43.21875 18.972656 L 43.21875 2.914062 L 86.507812 36.371094 L 43.21875 69.898438 Z M 84.597656 1.074219 L 84.597656 19.464844 L 106.523438 36.441406 L 84.597656 53.417969 L 84.597656 71.808594 L 130.289062 36.441406 Z M 85.515625 53.84375 L 108.007812 36.441406 L 85.515625 19.042969 L 85.515625 2.914062 L 128.804688 36.371094 L 85.515625 69.828125 Z M 85.515625 53.84375 "/></g></g><mask id="2d57231d77"><g filter="url(#90d49e675e)"><rect x="0" width="131.25" y="0" height="110.999996" style="fill:#000000;fill-opacity:0.5;stroke:none;"/></g></mask></g></g></g></svg>